<svg width="796" height="144" viewBox="0 0 796 144" fill="none" xmlns="http://www.w3.org/2000/svg">
<path d="M139.28 117V35.4H152.48C158.8 43.64 164.8 52.36 170.48 61.56C176.16 70.68 181.32 80.08 185.96 89.76L184.88 65.4V35.4H198.68V117H185.48C180.36 106.92 175.04 96.8 169.52 86.64C164.08 76.4 158.28 66.76 152.12 57.72L153.08 85.8V117H139.28ZM272.914 67.56V84.72C272.914 95.12 270.314 103.32 265.114 109.32C259.914 115.24 252.314 118.2 242.314 118.2C232.234 118.2 224.594 115.24 219.394 109.32C214.274 103.32 211.714 95.12 211.714 84.72V67.56C211.714 57.16 214.274 49 219.394 43.08C224.594 37.16 232.234 34.2 242.314 34.2C252.314 34.2 259.914 37.16 265.114 43.08C270.314 49 272.914 57.16 272.914 67.56ZM258.154 67.56C258.154 61 256.874 56.08 254.314 52.8C251.754 49.44 247.754 47.76 242.314 47.76C236.874 47.76 232.874 49.44 230.314 52.8C227.754 56.08 226.474 61 226.474 67.56V84.72C226.474 91.28 227.754 96.24 230.314 99.6C232.874 102.96 236.874 104.64 242.314 104.64C247.754 104.64 251.754 102.96 254.314 99.6C256.874 96.24 258.154 91.28 258.154 84.72V67.56ZM285.952 117V35.4H313.552C323.312 35.4 330.752 38.12 335.872 43.56C340.992 49 343.552 57 343.552 67.56V84.72C343.552 95.36 340.992 103.4 335.872 108.84C330.752 114.28 323.312 117 313.552 117H285.952ZM312.952 49.2H300.352V103.2H312.952C318.632 103.2 322.672 101.8 325.072 99C327.552 96.2 328.792 91.44 328.792 84.72V67.56C328.792 60.92 327.552 56.2 325.072 53.4C322.672 50.6 318.632 49.2 312.952 49.2ZM403.873 103.2V117H356.593V35.4H402.673V49.2H370.993V68.76H399.073V82.56H370.993V103.2H403.873ZM417.448 117V35.4H426.808C432.008 43.24 436.848 50.96 441.328 58.56C445.888 66.08 450.248 73.76 454.408 81.6C458.568 89.44 462.608 97.64 466.528 106.2L465.448 70.44V35.4H473.248V117H463.888C457.888 104.12 451.728 91.92 445.408 80.4C439.168 68.8 432.288 57.16 424.768 45.48L425.248 82.08V117H417.448ZM537.966 117L531.006 96H498.006L491.166 117H483.726L510.846 35.4H518.646L545.886 117H537.966ZM505.446 73.44L500.286 89.04H528.606L523.446 73.44L514.446 45.6L505.446 73.44ZM536.177 42.48V35.4H592.937V42.48H568.457V117H560.657V42.48H536.177ZM610.1 117H602.3V35.4H610.1V117ZM681.011 35.4L654.851 117H647.051L620.771 35.4H628.691L642.011 76.92L651.251 106.2L660.491 76.92L673.571 35.4H681.011ZM736.067 109.92V117H691.667V35.4H734.867V42.48H699.467V72.12H731.267V79.2H699.467V109.92H736.067Z" fill="#373737"/>
<path d="M26.5121 35H40.5121V117H26.5121V35Z" fill="#00A3FF"/>
<path d="M40.5121 58L40.5121 42.5L40.5121 35L86.0121 111L86.0121 117L73.0121 117L40.5121 58Z" fill="url(#paint0_linear_8_28)"/>
<path d="M51 32H65V107H51V32Z" fill="#00FFF0"/>
<path d="M64.8556 53.0467L64.8556 38.8631L64.8556 32L111.118 101.546L111.118 107.036L97.8999 107.036L64.8556 53.0467Z" fill="url(#paint1_linear_8_28)"/>
<path d="M97.8876 58.5371H112.122V107.036H97.8876V58.5371Z" fill="#00FFF0"/>
<path d="M90 53.5L79 35H90V53.5Z" fill="#00A3FF"/>
<defs>
<linearGradient id="paint0_linear_8_28" x1="-18" y1="-19.5" x2="88.4262" y2="115.042" gradientUnits="userSpaceOnUse">
<stop stop-color="#006BA8"/>
<stop offset="1" stop-color="#00A3FF"/>
</linearGradient>
<linearGradient id="paint1_linear_8_28" x1="54.4278" y1="39.6115" x2="106.241" y2="110.596" gradientUnits="userSpaceOnUse">
<stop stop-color="#00E4D7"/>
<stop offset="1" stop-color="#00FFF0"/>
</linearGradient>
</defs>
</svg>
